<?xml version="1.0" standalone="no"?>
<!DOCTYPE svg PUBLIC "-//W3C//DTD SVG 20010904//EN"
 "http://www.w3.org/TR/2001/REC-SVG-20010904/DTD/svg10.dtd">
<svg version="1.0" xmlns="http://www.w3.org/2000/svg"
 width="750.000000pt" height="750.000000pt" viewBox="0 0 750.000000 750.000000"
 preserveAspectRatio="xMidYMid meet">
<metadata>
Created by potrace 1.14, written by Peter Selinger 2001-2017
</metadata>
<g transform="translate(0.000000,750.000000) scale(0.100000,-0.100000)"
fill="#000000" stroke="none">
<path d="M0 3750 l0 -3750 3750 0 3750 0 0 3750 0 3750 -3750 0 -3750 0 0
-3750z m4750 3136 c370 -56 659 -144 967 -295 635 -312 1120 -794 1437 -1428
231 -464 339 -958 323 -1488 -14 -453 -111 -852 -306 -1260 -250 -522 -648
-972 -1140 -1289 -197 -127 -490 -266 -702 -334 -200 -64 -480 -123 -487 -103
-2 6 -19 20 -38 32 -25 15 -32 25 -25 32 16 16 13 27 -10 36 l-22 8 23 20 c28
27 18 44 -21 36 -24 -5 -28 -3 -23 11 4 12 0 16 -15 16 -34 0 -24 20 22 40
l42 20 -34 0 c-29 0 -32 2 -21 15 20 24 5 29 -52 18 -59 -12 -112 -12 -124 -1
-4 5 -2 8 4 8 7 0 12 6 12 14 0 8 -10 13 -27 12 -31 -2 -53 10 -53 28 0 6 5 4
11 -4 8 -12 12 -12 16 -2 4 10 8 10 19 1 11 -9 14 -7 14 15 0 16 -5 26 -15 26
-8 0 -15 7 -15 16 0 14 3 14 15 4 12 -10 15 -10 15 4 0 9 -4 16 -9 16 -15 0
-5 55 10 55 8 0 19 4 26 8 6 4 19 4 30 0 16 -6 16 -5 4 11 -10 12 -23 15 -45
11 -30 -6 -30 -5 -11 10 11 8 38 20 60 26 22 6 50 16 62 21 11 6 27 7 34 3 8
-5 10 -4 5 3 -4 7 -1 12 9 12 9 0 14 -4 11 -9 -3 -5 0 -11 8 -14 14 -6 30 25
27 51 -1 6 8 12 19 12 13 0 24 8 27 20 5 20 36 36 51 26 12 -7 145 14 156 25
6 5 18 9 28 9 10 0 18 5 18 10 0 6 6 10 14 10 7 0 30 14 51 30 l38 30 -32 -6
c-26 -6 -31 -4 -31 14 0 26 -38 33 -80 15 -39 -16 -202 -30 -198 -17 2 5 -7
19 -20 32 -12 12 -22 18 -22 14 0 -4 5 -13 12 -20 21 -21 3 -22 -31 -1 -24 14
-31 24 -26 37 4 9 8 22 9 27 9 32 25 51 76 88 34 26 55 47 52 56 -3 8 0 11 6
7 5 -3 12 1 15 9 4 9 1 12 -9 9 -48 -14 -47 -14 -34 -29 10 -12 9 -15 -8 -15
-11 0 -35 -12 -53 -27 -24 -20 -31 -23 -26 -10 6 15 2 16 -35 11 -30 -5 -39
-4 -34 4 10 17 -9 15 -23 -2 -6 -8 -26 -20 -44 -27 -18 -7 -37 -20 -44 -29
-11 -13 -12 -13 -13 0 0 20 11 35 33 43 18 7 24 27 7 27 -5 0 -10 -4 -10 -10
0 -5 -9 -10 -20 -10 -11 0 -20 -4 -20 -10 0 -16 -20 -12 -27 6 -3 9 0 20 7 24
9 6 10 9 0 15 -8 5 -25 -6 -46 -29 -31 -34 -43 -40 -71 -37 -7 1 -21 -3 -32
-8 -14 -8 -24 -6 -41 9 -13 11 -26 18 -28 15 -3 -3 3 -12 14 -19 10 -8 15 -18
11 -23 -8 -7 -32 17 -40 40 -2 6 -25 10 -52 9 -27 -1 -64 3 -83 9 -28 9 -36 9
-43 -2 -5 -8 -7 -19 -5 -25 2 -6 -12 -9 -38 -8 -22 2 -47 3 -55 3 -11 1 -11 4
-1 16 9 10 9 15 1 15 -17 0 -24 2 -48 11 -13 5 -25 4 -28 -1 -4 -6 1 -10 10
-10 9 0 15 -6 12 -12 -2 -7 -10 -12 -16 -11 -6 2 -11 -2 -11 -7 0 -6 -5 -10
-11 -10 -5 0 -7 5 -4 10 3 6 1 10 -4 10 -6 0 -11 -8 -11 -17 -1 -17 -1 -17
-14 0 -8 10 -18 17 -22 16 -5 -1 -22 -1 -39 0 -23 1 -26 4 -15 11 8 5 25 7 37
3 15 -3 23 -1 23 8 0 10 3 10 11 2 13 -13 39 -6 39 9 0 7 -24 9 -64 6 l-65 -5
17 23 c17 24 32 31 32 15 0 -7 19 -8 53 -2 4 0 7 10 7 21 0 13 -5 18 -15 14
-8 -4 -12 -10 -9 -15 3 -5 1 -9 -5 -9 -5 0 -15 8 -20 18 -6 9 -11 11 -11 5 0
-18 -27 -16 -33 2 -7 16 -1 55 9 64 4 3 4 -2 1 -11 -4 -10 -2 -18 3 -18 6 0
10 9 10 21 0 14 5 19 15 16 8 -4 17 -2 20 3 11 17 -13 20 -58 6 -25 -8 -48
-11 -51 -8 -4 3 -6 0 -6 -6 0 -8 -12 -10 -32 -8 -18 3 -43 5 -55 5 -20 1 -26
21 -10 37 3 4 2 15 -3 24 -8 15 -6 17 11 13 13 -4 19 -1 17 7 -2 7 3 15 10 17
8 3 10 -1 6 -11 -3 -9 -2 -16 4 -16 5 0 12 6 15 14 7 17 -18 29 -43 21 -12 -4
-19 1 -23 17 -4 12 -4 24 -2 27 3 2 5 -1 5 -7 0 -6 6 -9 14 -6 8 3 17 1 21 -5
7 -13 25 -15 25 -3 0 11 -71 33 -82 26 -5 -4 -7 -12 -4 -20 3 -7 1 -16 -4 -19
-5 -3 -12 6 -16 21 -6 23 -9 25 -18 12 -6 -8 -17 -13 -23 -11 -15 5 -17 -13
-3 -22 12 -7 7 -58 -8 -95 -13 -31 -15 -6 -3 38 6 20 6 32 0 32 -5 0 -9 11 -9
24 0 19 -5 23 -25 21 -14 -2 -25 1 -25 6 0 5 -5 9 -12 9 -6 0 -4 -7 5 -18 27
-29 20 -38 -8 -12 -30 28 -75 38 -75 16 0 -9 -9 -13 -25 -12 -14 0 -25 4 -25
7 0 3 -7 6 -15 6 -8 0 -15 -7 -15 -14 0 -8 -10 -2 -25 14 -21 24 -24 25 -25 9
0 -17 -15 -15 -15 2 0 4 -4 13 -9 21 -7 11 -5 13 7 8 10 -3 17 -3 17 2 0 4 10
19 21 32 15 16 23 20 26 12 3 -7 9 -13 14 -13 4 0 6 8 2 17 -5 14 -3 15 7 6
14 -13 43 -6 34 9 -4 7 7 8 32 4 56 -9 103 -9 149 -1 56 9 134 11 129 3 -6 -9
25 -18 87 -23 143 -13 251 -20 255 -16 5 5 27 9 64 12 41 2 52 0 45 -11 -10
-16 0 -12 25 10 13 11 27 20 32 20 15 0 21 -31 8 -43 -10 -9 -11 -7 -5 11 8
28 0 28 -29 -2 -16 -15 -21 -28 -16 -37 7 -11 10 -10 16 4 3 9 10 15 14 12 17
-11 40 8 41 34 l0 26 10 -24 c8 -20 11 -22 26 -10 13 11 17 11 20 2 3 -7 11
-13 18 -13 7 0 15 -6 18 -12 2 -7 7 -10 11 -7 3 3 -3 15 -14 27 -11 12 -20 26
-20 32 0 5 -5 10 -12 10 -6 0 -9 2 -6 5 3 3 17 1 32 -4 31 -13 76 4 77 28 0 9
5 1 10 -16 9 -30 29 -46 29 -23 0 6 -4 10 -10 10 -5 0 -7 6 -4 14 5 14 35 28
64 30 17 1 27 36 10 36 -7 0 -2 9 11 19 27 21 39 20 20 -3 -18 -21 -1 -25 44
-11 22 7 34 13 28 14 -7 1 -13 6 -13 12 0 6 9 8 21 4 16 -6 20 -4 13 6 -6 12
-5 12 8 1 10 -8 14 -21 11 -30 -3 -9 -3 -14 1 -10 6 5 11 21 15 48 1 3 16 14
35 24 19 10 42 33 52 52 10 19 24 34 30 34 6 0 11 6 11 13 0 6 4 29 8 50 7 34
5 37 -11 30 -11 -3 -21 -9 -24 -12 -11 -13 -69 -41 -83 -41 -27 0 -27 16 1 50
33 39 41 67 30 98 -5 14 -3 30 4 41 9 15 7 22 -11 40 -40 40 -53 29 -47 -42 5
-55 3 -66 -15 -85 -11 -13 -25 -36 -31 -52 -6 -20 -19 -32 -36 -37 -15 -3 -39
-15 -54 -25 -16 -11 -28 -16 -28 -11 0 4 -5 1 -11 -7 -8 -12 -9 -9 -4 9 6 21
4 23 -14 18 -27 -7 -27 1 3 24 13 10 26 30 28 44 3 14 3 23 0 20 -3 -2 -11 0
-18 5 -9 8 -18 3 -33 -16 -14 -18 -33 -28 -54 -30 -17 -1 -47 -6 -66 -10 -22
-5 -32 -4 -28 3 4 6 25 13 48 17 51 8 79 22 79 41 0 9 -11 13 -30 13 -17 -1
-38 6 -48 15 -22 20 -38 22 -45 5 -3 -7 -6 -3 -6 10 -1 30 -44 51 -72 34 -24
-16 -29 -15 -29 3 0 11 -8 13 -32 8 -18 -3 -36 -11 -40 -17 -6 -8 -11 -7 -17
3 -7 11 -10 11 -17 -1 -10 -16 -74 -30 -74 -16 0 4 11 10 25 14 14 3 25 10 25
14 0 5 3 17 6 27 4 14 1 12 -13 -5 -17 -20 -21 -22 -32 -9 -10 12 -7 19 18 36
22 16 45 21 98 22 54 1 62 2 40 9 -16 5 -36 17 -44 27 -10 13 -13 13 -10 3 4
-12 -7 -15 -57 -14 -84 2 -86 3 -86 15 0 7 12 9 35 5 38 -8 105 11 105 29 0 5
-4 16 -9 24 -8 12 -12 12 -25 2 -9 -7 -29 -11 -46 -9 -24 4 -27 2 -19 -9 9
-10 8 -13 -5 -13 -9 0 -16 6 -16 14 0 8 -11 17 -24 20 -13 3 -32 9 -43 12 -15
5 -16 4 -3 -6 13 -10 11 -11 -8 -7 -14 3 -26 -1 -32 -11 -9 -16 -9 -16 -10 0
0 9 8 21 17 27 10 5 14 13 10 18 -5 4 -19 -4 -32 -19 -13 -16 -28 -28 -33 -28
-4 0 -18 -9 -29 -19 -21 -20 -21 -20 -19 4 0 13 4 21 9 18 13 -8 7 5 -9 22
-13 12 -14 19 -5 28 20 20 11 28 -14 11 -14 -9 -25 -12 -25 -6 0 6 6 12 13 15
6 2 9 8 5 11 -3 4 -16 -2 -29 -15 -17 -17 -21 -18 -16 -5 4 10 7 22 7 27 0 5
7 9 15 9 9 0 12 6 9 15 -8 20 21 46 42 38 13 -5 16 -3 12 8 -4 10 4 19 23 28
17 8 29 20 29 32 0 10 4 19 9 19 5 0 11 9 14 20 3 14 14 20 32 20 17 0 25 5
22 13 -2 7 -18 11 -36 9 -20 -1 -30 2 -26 8 14 22 117 80 143 80 27 0 26 -1
-8 -18 -27 -13 -31 -18 -16 -20 15 -3 16 -6 5 -12 -7 -5 -10 -12 -6 -16 3 -4
24 4 44 18 21 14 45 28 53 31 10 3 5 7 -14 12 l-28 8 43 21 c118 60 -6 33
-135 -29 -28 -14 -52 -21 -54 -16 -1 4 -19 -7 -40 -26 -20 -19 -56 -39 -79
-46 -24 -6 -43 -15 -43 -19 0 -4 -6 -8 -12 -8 -7 0 -24 -14 -37 -30 -25 -32
-83 -78 -80 -63 1 4 1 16 0 26 -2 26 -16 20 -17 -8 -1 -13 -19 -55 -40 -92
-35 -60 -39 -65 -42 -41 -4 33 -46 47 -71 23 -28 -25 -37 -17 -11 10 l23 25
-21 0 c-12 0 -22 5 -22 10 0 6 13 10 29 10 17 0 33 5 36 10 3 6 -3 10 -14 10
-15 0 -21 6 -21 23 0 19 -2 18 -20 -11 -11 -18 -20 -39 -20 -46 0 -17 -27 -29
-35 -16 -4 6 -1 10 5 10 6 0 9 4 5 10 -3 5 1 25 9 45 8 19 13 35 10 35 -5 0
14 24 34 43 24 23 37 32 62 45 59 31 65 39 52 75 -16 45 -15 52 5 36 14 -12
16 -12 12 0 -3 8 -14 19 -25 25 -10 6 -22 15 -25 19 -4 5 -21 1 -39 -8 -31
-16 -33 -16 -26 1 4 10 1 21 -6 26 -20 12 -38 9 -38 -7 0 -8 5 -15 10 -15 6 0
10 -5 10 -10 0 -7 -7 -7 -21 0 -11 6 -19 18 -17 27 3 16 8 19 58 42 28 13 55
49 45 59 -4 4 -11 -1 -16 -11 -6 -9 -15 -14 -21 -11 -7 5 -5 12 7 21 11 7 15
13 11 13 -4 0 1 12 12 28 22 32 24 53 5 70 -10 10 -13 9 -13 -5 0 -15 -2 -16
-10 -3 -8 12 -10 11 -10 -7 0 -13 -6 -23 -13 -23 -8 0 -24 -11 -36 -24 -20
-21 -64 -41 -74 -34 -2 2 -10 -2 -18 -9 -8 -7 -26 -9 -38 -6 -22 6 -23 7 -7
19 17 12 17 13 -1 22 -14 8 -25 6 -43 -9 -14 -10 -20 -19 -15 -19 11 0 -16
-20 -28 -20 -4 0 -3 9 3 19 17 33 12 42 -15 25 -26 -17 -42 -14 -30 5 3 6 12
8 18 5 7 -4 2 4 -10 16 -16 18 -25 21 -35 13 -7 -6 -31 -14 -53 -18 -49 -9
-107 -34 -100 -45 9 -14 -229 -24 -415 -17 -14 1 -40 -2 -57 -7 -29 -7 -33 -5
-33 13 0 22 -15 36 -24 22 -7 -11 -56 10 -56 25 0 5 7 19 15 30 13 17 14 17
15 2 0 -15 4 -16 25 -6 24 11 24 12 8 30 -13 14 -14 21 -5 30 9 9 12 9 13 -2
0 -8 4 -5 9 8 12 28 27 28 36 0 6 -19 7 -20 16 -4 7 13 4 23 -16 41 -14 13
-26 30 -25 37 0 10 2 10 6 1 2 -7 11 -13 19 -13 8 0 14 -7 14 -15 0 -8 4 -15
9 -15 5 0 7 9 4 20 -3 11 -12 20 -19 20 -8 0 -14 5 -14 10 0 6 7 10 16 10 14
0 15 2 3 17 -10 11 -10 14 -1 9 7 -4 12 -2 12 4 0 6 -14 16 -30 22 -25 8 -28
13 -19 24 10 12 9 13 -5 8 -9 -3 -16 -16 -16 -28 0 -16 -2 -18 -9 -6 -6 8 -8
17 -5 21 2 4 -4 10 -13 12 -13 3 -12 5 5 6 15 1 21 5 16 13 -5 8 -2 9 11 4 14
-5 16 -4 6 8 -6 7 -8 21 -5 30 4 10 -1 25 -11 36 -16 18 -16 18 7 13 18 -4 20
-3 8 6 -13 9 -12 11 5 11 18 0 18 1 -3 16 -27 19 -28 30 -2 37 11 3 18 2 16
-2 -3 -4 -1 -13 3 -19 6 -10 11 -9 21 3 8 10 9 15 1 15 -6 0 -11 8 -11 18 0
20 38 57 59 57 28 0 21 21 -8 23 -22 2 -31 -3 -36 -18 -5 -14 -12 -19 -24 -15
-15 4 -17 1 -13 -20 2 -15 0 -25 -7 -25 -6 0 -11 5 -11 11 0 8 -6 7 -17 -2
-15 -11 -14 -10 1 9 19 22 19 22 -7 22 -15 0 -27 -4 -27 -8 0 -4 -15 -9 -32
-10 -25 -2 -29 0 -18 8 8 5 11 10 7 10 -4 0 3 15 17 33 20 26 23 36 14 45 -7
7 -8 12 -2 12 5 0 15 -9 21 -19 10 -16 9 -20 -4 -25 -9 -4 -14 -9 -11 -11 5
-6 68 24 68 31 0 3 -9 2 -20 -1 -14 -4 -20 -2 -20 9 0 8 4 17 10 21 5 3 6 13
3 22 -5 13 -2 15 12 9 11 -4 22 -2 27 6 6 11 10 10 17 -1 6 -9 11 -10 15 -2 4
6 3 11 -2 11 -5 0 -9 6 -9 14 0 8 6 12 14 9 11 -5 18 8 14 29 0 4 6 5 14 2 17
-7 21 11 5 21 -18 11 -10 22 21 29 32 6 64 -9 53 -25 -3 -5 0 -9 6 -9 6 0 8
-4 5 -10 -3 -5 -1 -10 4 -10 6 0 11 4 11 8 0 5 12 14 26 21 16 7 24 17 21 26
-4 8 1 16 11 19 9 3 -5 3 -33 1 -70 -6 -97 -6 -104 1 -3 4 -1 9 6 11 7 2 9 11
6 20 -5 13 -1 15 19 10 15 -4 33 0 47 9 26 19 40 11 21 -11 -11 -13 -9 -15 14
-15 32 0 78 28 70 42 -4 6 -1 8 7 6 8 -3 22 -1 32 4 11 5 17 5 17 -2 0 -5 5
-10 11 -10 5 0 7 5 4 10 -4 7 3 8 20 4 19 -5 25 -3 23 7 -4 18 -24 39 -37 39
-6 0 -11 3 -11 8 0 7 36 11 105 12 22 0 26 3 16 10 -12 7 -8 10 15 16 16 4 49
21 74 38 66 45 97 59 115 52 19 -7 62 13 88 42 17 19 17 20 -13 25 -37 8 -39
24 -3 38 16 6 35 16 43 23 8 8 45 23 83 36 l67 22 0 44 c0 32 6 49 20 61 24
21 28 83 6 83 -8 0 -17 -4 -20 -9 -4 -5 -36 -26 -73 -46 -71 -39 -164 -58
-177 -36 -9 14 -51 14 -79 -1 -20 -10 -21 -10 -8 5 7 10 20 17 28 17 8 0 13 6
10 13 -4 14 44 37 78 37 12 0 27 6 33 13 16 19 -78 20 -124 1 -21 -9 -48 -13
-65 -9 -21 5 -37 1 -58 -14 -32 -23 -51 -27 -51 -11 0 6 7 10 15 10 21 0 19
28 -2 33 -15 4 -14 5 3 6 11 0 52 17 91 36 39 19 74 35 78 35 4 0 4 -11 1 -25
-6 -25 7 -35 19 -15 5 8 11 7 21 -1 12 -9 13 -9 9 3 -4 10 1 17 14 21 15 3 21
13 21 32 0 22 -3 25 -20 20 -16 -5 -21 -1 -26 22 -9 42 -101 82 -120 51 -5 -8
0 -9 16 -5 13 3 28 0 37 -9 14 -14 7 -19 -20 -15 -13 2 -47 -19 -47 -30 0 -7
12 -8 33 -4 l32 7 -34 -26 c-19 -14 -45 -26 -56 -26 -22 0 -25 5 -63 90 l-20
45 21 17 c11 10 27 19 36 19 42 4 73 7 154 18 64 9 93 9 108 0 11 -6 23 -8 26
-6 15 16 -49 27 -144 26 -60 -1 -124 2 -144 6 -24 4 -48 1 -72 -9 -32 -13 -37
-13 -37 0 0 20 -20 17 -20 -3 -1 -16 -2 -16 -15 1 -11 14 -15 16 -15 5 0 -8 7
-23 15 -33 19 -25 19 -50 0 -66 -12 -10 -15 -10 -15 1 0 8 5 21 10 29 10 15
-8 28 -40 29 -13 1 -13 0 0 -9 12 -8 12 -10 -3 -16 -12 -4 -23 0 -33 12 -9 11
-13 13 -9 7 3 -7 0 -13 -7 -13 -10 0 -10 -2 1 -9 7 -5 10 -14 7 -20 -16 -25
-26 -8 -26 40 0 45 -2 50 -15 39 -13 -11 -15 -8 -15 13 0 15 -9 32 -21 41 -12
8 -18 19 -14 25 3 6 -1 11 -9 11 -22 0 -20 20 2 20 19 1 68 38 59 46 -3 3 -15
0 -27 -6 -12 -7 -31 -9 -42 -7 -11 3 -30 1 -42 -5 -48 -25 -57 -28 -81 -28
-14 0 -25 -4 -25 -10 0 -13 -27 -13 -32 0 -2 6 -19 3 -41 -7 -28 -13 -37 -22
-33 -35 2 -11 0 -15 -6 -12 -14 9 -51 11 -58 4 -20 -21 -102 -69 -97 -56 4 10
-11 5 -44 -15 -48 -28 -54 -25 -21 13 8 10 18 15 23 12 11 -6 93 76 83 84 -3
4 -9 1 -12 -7 -8 -24 -65 -72 -72 -61 -4 7 -17 3 -32 -10 -35 -27 -42 -25 -22
6 10 14 23 23 31 20 14 -6 35 32 26 47 -2 4 5 7 17 7 11 0 23 7 26 15 4 8 22
22 41 32 23 11 30 18 22 24 -17 10 10 37 42 41 32 5 51 17 43 29 -3 5 8 14 25
20 19 7 28 15 24 22 -3 7 6 1 20 -12 15 -14 30 -21 34 -17 5 4 -1 14 -11 21
-18 14 -18 15 7 26 28 13 40 42 24 58 -15 15 -2 24 20 13 20 -11 70 -5 79 9 3
5 17 10 32 10 24 2 24 2 5 6 -13 2 -23 8 -23 13 0 12 25 19 47 14 10 -2 25 0
33 6 13 9 13 11 0 21 -12 9 -11 10 8 6 15 -3 22 0 22 9 0 16 26 19 35 4 3 -5
12 -10 18 -10 8 0 8 3 -2 9 -17 11 3 25 24 17 8 -3 14 0 12 6 -1 6 21 17 48
23 28 7 44 13 38 14 -24 2 -13 21 12 21 31 0 105 31 105 45 0 5 4 3 9 -5 8
-12 14 -10 34 10 14 14 42 34 64 45 21 11 44 25 50 32 7 6 26 17 43 25 34 15
39 28 10 28 -20 0 -41 -8 -128 -46 -29 -13 -59 -24 -67 -24 -7 0 -16 -4 -19
-9 -3 -4 -25 -11 -49 -13 -25 -3 -64 -15 -88 -26 -24 -12 -75 -32 -114 -45
-38 -14 -85 -31 -103 -38 -26 -11 -36 -11 -52 -1 -29 18 -42 15 -35 -8 4 -11
2 -20 -4 -20 -6 0 -11 7 -11 15 0 17 -16 21 -22 5 -1 -5 -42 -11 -89 -12 -64
-2 -85 -6 -82 -15 3 -8 -3 -13 -17 -13 -11 0 -19 4 -16 9 4 5 0 11 -6 14 -10
3 -10 7 -1 17 9 10 19 10 44 1 40 -14 59 -14 59 -1 0 6 -6 10 -13 10 -8 0 -22
9 -32 20 -13 14 -21 17 -31 9 -8 -7 -14 -7 -19 1 -3 5 -1 10 4 10 6 0 11 5 11
10 0 16 -15 12 -41 -10 -20 -18 -21 -24 -11 -40 16 -25 15 -30 -3 -30 -9 0
-15 9 -15 25 0 14 -9 30 -20 37 -25 16 -27 40 -2 31 15 -6 16 -5 2 12 -14 17
-13 18 3 12 20 -7 22 3 5 22 -11 11 -10 13 4 8 9 -3 19 -1 22 6 3 9 7 8 14 -2
7 -10 14 -6 28 18 10 17 22 31 27 31 5 0 4 6 -2 14 -9 10 -8 15 4 20 8 3 15 1
15 -4 0 -6 4 -10 10 -10 12 0 1 30 -17 49 -11 10 -11 16 -2 27 6 8 10 14 8 15
-2 0 -17 3 -34 5 -16 3 -31 9 -33 15 -2 5 -10 9 -18 9 -24 0 -15 18 21 40 41
25 46 43 9 34 -26 -7 -26 -6 -10 18 19 29 11 42 -16 27 -28 -15 -37 -7 -25 21
5 14 11 32 13 40 2 8 10 20 18 26 20 14 20 24 1 24 -18 0 -20 30 -2 31 9 0 9
2 -1 6 -10 4 -10 8 0 21 11 13 11 15 -2 8 -27 -13 103 104 180 163 160 123
314 219 500 311 351 175 698 275 1110 319 128 14 575 6 700 -13z m-2551 -1355
c7 -5 11 -13 7 -19 -8 -14 -46 -3 -46 14 0 16 18 18 39 5z m24 -98 c-7 -2 -19
-2 -25 0 -7 3 -2 5 12 5 14 0 19 -2 13 -5z m342 -63 c-3 -5 -18 -10 -33 -10
-21 0 -24 2 -12 10 20 13 53 13 45 0z m-17 -310 c11 -19 10 -20 -29 -20 -41 0
-42 0 -24 20 10 11 23 20 29 20 6 0 17 -9 24 -20z m-93 -40 c-3 -5 -12 -10
-18 -10 -7 0 -6 4 3 10 19 12 23 12 15 0z m195 -19 c0 -14 -5 -18 -20 -14 -25
7 -26 20 -2 26 9 3 18 5 20 6 1 0 2 -8 2 -18z m-150 -46 c-9 -10 -9 -15 -1
-15 6 0 11 -4 11 -10 0 -5 -7 -10 -15 -10 -8 0 -15 -9 -15 -20 0 -47 -43 -91
-72 -74 -15 9 -3 109 13 110 53 4 54 4 40 13 -14 9 -7 12 43 20 5 0 3 -6 -4
-14z m-423 -27 c-3 -7 -5 -2 -5 12 0 14 2 19 5 13 2 -7 2 -19 0 -25z m466 2
c-3 -11 -9 -20 -14 -20 -5 0 -9 -7 -9 -16 0 -8 -4 -13 -9 -10 -12 8 10 66 25
66 7 0 10 -8 7 -20z m-150 -26 c8 -8 -3 -34 -15 -34 -6 0 -6 6 1 14 9 11 9 15
-1 19 -7 3 -8 6 -2 6 6 1 13 -2 17 -5z m287 -28 c0 -3 -4 -8 -10 -11 -5 -3
-10 -1 -10 4 0 6 5 11 10 11 6 0 10 -2 10 -4z m25 -15 c-3 -6 -11 -11 -16 -11
-5 0 -4 6 3 14 14 16 24 13 13 -3z m-275 -61 c0 -5 -4 -10 -10 -10 -5 0 -10 5
-10 10 0 6 5 10 10 10 6 0 10 -4 10 -10z m450 0 c0 -5 -7 -10 -15 -10 -8 0
-15 5 -15 10 0 6 7 10 15 10 8 0 15 -4 15 -10z m45 -18 c-7 -8 -35 7 -35 18 0
6 7 6 20 -2 10 -7 17 -14 15 -16z m-95 8 c0 -5 -2 -10 -4 -10 -3 0 -8 5 -11
10 -3 6 -1 10 4 10 6 0 11 -4 11 -10z m-276 -35 c3 -9 0 -15 -8 -15 -8 0 -16
7 -20 15 -3 9 0 15 8 15 8 0 16 -7 20 -15z m261 -95 c3 -6 -4 -10 -17 -10 -18
0 -20 2 -8 10 19 12 18 12 25 0z m105 -80 c10 0 20 5 22 11 2 6 9 0 15 -14 12
-25 11 -26 -15 -22 -24 3 -54 12 -102 32 -11 4 -8 8 10 12 15 5 30 2 38 -6 7
-7 22 -13 32 -13z m90 0 c0 -5 -4 -10 -9 -10 -6 0 -13 5 -16 10 -3 6 1 10 9
10 9 0 16 -4 16 -10z m190 -69 c0 -10 -61 -24 -69 -16 -8 9 21 25 47 25 12 0
22 -4 22 -9z m-3 -47 c-3 -3 -12 -4 -19 -1 -8 3 -5 6 6 6 11 1 17 -2 13 -5z
m-993 -96 c20 -39 20 -48 1 -48 -17 0 -39 46 -31 67 8 19 13 16 30 -19z m446
-322 c0 -2 -7 -7 -16 -10 -8 -3 -12 -2 -9 4 6 10 25 14 25 6z m-310 -220 c0
-2 -7 -9 -15 -16 -13 -11 -14 -10 -9 4 5 14 24 23 24 12z m-10 -114 c0 -3 -7
3 -15 14 -8 10 -14 26 -15 34 0 8 7 2 15 -14 8 -15 15 -31 15 -34z m47 16 c-3
-8 -6 -5 -6 6 -1 11 2 17 5 13 3 -3 4 -12 1 -19z m-32 -68 c3 -5 1 -10 -4 -10
-6 0 -11 5 -11 10 0 6 2 10 4 10 3 0 8 -4 11 -10z m85 -26 c0 -21 -17 -17 -23
5 -3 14 -1 18 9 14 8 -3 14 -11 14 -19z m-8 -46 c-9 -9 -15 -9 -24 1 -9 10 -9
12 -1 7 6 -3 15 -1 18 5 4 5 10 8 13 4 3 -3 0 -11 -6 -17z m12 -104 c9 -3 16
-15 16 -25 0 -27 -13 -24 -27 6 -12 27 -12 28 11 19z m656 -194 c0 -5 -9 -10
-21 -10 -11 0 -17 5 -14 10 3 6 13 10 21 10 8 0 14 -4 14 -10z m-33 -34 c4 -4
1 -11 -7 -16 -13 -9 -13 -10 0 -10 13 0 13 -1 0 -10 -21 -14 -30 -12 -24 4 3
8 0 17 -5 21 -6 3 -9 10 -6 15 6 9 31 7 42 -4z m-622 -16 c3 -5 2 -10 -4 -10
-5 0 -13 5 -16 10 -3 6 -2 10 4 10 5 0 13 -4 16 -10z m951 -13 c4 -4 0 -7 -9
-7 -9 0 -17 -6 -17 -14 0 -8 -6 -17 -12 -19 -7 -3 -4 -6 6 -6 11 -1 28 6 38
16 10 9 21 13 26 8 4 -4 1 -10 -6 -12 -7 -3 -19 -11 -27 -20 -8 -8 -20 -11
-26 -7 -7 4 -9 3 -5 -4 3 -6 -4 -14 -16 -18 -27 -8 -34 -5 -30 13 2 8 -7 13
-23 13 -14 0 -25 -4 -25 -10 0 -5 -4 -10 -9 -10 -5 0 -4 14 2 30 6 17 17 30
24 30 17 0 17 -17 1 -23 -7 -3 -8 -6 -2 -6 5 -1 21 9 33 20 19 18 25 19 33 8
8 -11 9 -11 5 3 -3 9 -3 18 -1 21 7 7 32 3 40 -6z m-799 -3 c-3 -3 -12 -4 -19
-1 -8 3 -5 6 6 6 11 1 17 -2 13 -5z m196 -11 c-7 -2 -21 -2 -30 0 -10 3 -4 5
12 5 17 0 24 -2 18 -5z m454 -15 c-3 -8 -6 -5 -6 6 -1 11 2 17 5 13 3 -3 4
-12 1 -19z m-217 -8 c0 -5 -6 -10 -12 -11 -7 0 -4 -4 7 -9 22 -10 5 -13 -19
-4 -12 5 -13 9 -3 20 14 16 27 18 27 4z m284 -80 c18 -6 26 -6 26 1 0 6 7 9
17 7 17 -3 28 -38 11 -38 -6 0 -8 7 -4 15 4 13 2 14 -14 5 -15 -8 -27 -7 -47
4 -32 17 -26 20 11 6z m194 -35 c2 -19 -1 -35 -6 -35 -5 0 -19 -9 -32 -20 -19
-17 -24 -17 -37 -5 -8 8 -19 15 -24 15 -5 0 -9 5 -9 10 0 6 14 10 31 10 16 0
28 4 24 9 -3 5 4 13 16 16 12 4 18 12 15 21 -3 8 0 14 7 14 8 0 14 -15 15 -35z
m-118 -91 c0 -8 -5 -12 -10 -9 -6 4 -8 11 -5 16 9 14 15 11 15 -7z m-36 -63
c-10 -22 -27 -42 -38 -45 -11 -3 -15 -9 -10 -17 4 -7 3 -10 -3 -6 -6 4 -8 17
-6 29 3 16 -3 27 -16 36 -18 10 -21 10 -21 -3 0 -8 5 -15 11 -15 8 0 9 -4 0
-13 -6 -8 -8 -17 -4 -21 4 -3 8 -15 10 -25 2 -15 -2 -18 -19 -13 -14 3 -19 1
-14 -6 3 -6 -5 -23 -19 -38 -14 -15 -25 -33 -25 -40 0 -8 -4 -14 -9 -14 -13 0
-24 34 -12 38 6 2 11 10 11 19 0 24 -35 10 -36 -15 -1 -12 -2 -26 -3 -31 0 -5
-17 -26 -36 -47 l-35 -39 15 37 c9 23 11 39 5 43 -6 3 -10 -2 -10 -11 0 -16
-2 -16 -18 2 -10 11 -22 32 -26 47 -3 15 -11 25 -16 22 -23 -14 -7 15 28 53
30 33 43 41 67 38 17 -1 29 -8 28 -14 -4 -17 14 -15 20 2 3 8 1 17 -6 20 -7 2
2 5 18 6 17 1 22 4 13 7 -10 2 -15 10 -11 19 4 12 21 13 85 9 75 -6 80 -5 85
15 3 11 8 18 11 15 3 -3 -3 -23 -14 -44z m146 -171 c0 -5 -4 -12 -10 -15 -5
-3 -10 -24 -10 -46 0 -32 -3 -39 -20 -39 -17 0 -20 7 -20 42 0 45 23 80 46 71
8 -3 14 -9 14 -13z m-214 -45 c-11 -8 -25 -15 -30 -15 -6 1 0 7 14 15 32 19
40 18 16 0z m-69 -21 c-3 -3 -12 -4 -19 -1 -8 3 -5 6 6 6 11 1 17 -2 13 -5z
m533 -14 c0 -5 -2 -10 -4 -10 -3 0 -8 5 -11 10 -3 6 -1 10 4 10 6 0 11 -4 11
-10z m-21 -43 c8 -10 7 -19 -3 -33 -8 -10 -17 -16 -21 -12 -3 3 0 12 8 19 12
12 12 15 -2 26 -9 7 -11 13 -5 13 6 0 17 -6 23 -13z m-535 -22 c-4 -8 -11 -15
-16 -15 -6 0 -5 6 2 15 7 8 14 15 16 15 2 0 1 -7 -2 -15z m726 -104 c-49 -35
-60 -54 -40 -66 6 -3 10 -11 10 -17 0 -5 -9 0 -20 13 l-20 24 35 31 c19 17 39
44 45 60 11 27 12 28 25 10 13 -17 10 -22 -35 -55z m-70 52 c0 -5 -16 -28 -35
-52 -19 -24 -35 -39 -35 -33 0 8 60 90 68 91 1 1 2 -2 2 -6z m60 -3 c0 -5 -5
-10 -11 -10 -5 0 -7 5 -4 10 3 6 8 10 11 10 2 0 4 -4 4 -10z m-545 -10 c4 -6
4 -24 0 -40 -5 -23 -12 -30 -30 -30 -13 0 -27 4 -30 10 -3 6 1 7 9 4 16 -6 21
8 17 49 -2 18 24 24 34 7z m638 -10 c-3 -11 -7 -20 -8 -20 -1 0 -5 9 -8 20 -3
12 0 20 8 20 8 0 11 -8 8 -20z m-326 -22 c-3 -7 -5 -2 -5 12 0 14 2 19 5 13 2
-7 2 -19 0 -25z m-632 -13 c0 -26 -31 -31 -56 -10 -25 23 -15 37 24 33 24 -2
32 -8 32 -23z m62 -1 c-3 -3 -12 -4 -19 -1 -8 3 -5 6 6 6 11 1 17 -2 13 -5z
m883 -11 c0 -9 -3 -14 -6 -11 -7 8 -44 -30 -77 -81 -16 -24 -31 -40 -34 -37
-3 3 4 17 16 32 12 15 19 35 16 45 -3 9 -1 20 4 24 7 4 9 -1 5 -12 -5 -16 -4
-15 11 2 9 12 11 21 5 23 -5 2 -10 8 -10 13 0 6 4 8 9 4 5 -3 12 -1 16 5 10
17 45 12 45 -7z m-850 -18 c14 -19 14 -19 -2 -6 -10 7 -18 18 -18 24 0 6 1 8
3 6 1 -2 9 -13 17 -24z m146 -29 c-1 -20 -5 -31 -10 -26 -7 7 -1 60 7 60 2 0
3 -15 3 -34z m704 20 c0 -3 -4 -8 -10 -11 -5 -3 -10 -1 -10 4 0 6 5 11 10 11
6 0 10 -2 10 -4z m657 -68 c-3 -8 -6 -5 -6 6 -1 11 2 17 5 13 3 -3 4 -12 1
-19z m114 -75 c-8 -15 -10 -11 -9 15 1 26 3 30 10 18 5 -10 5 -23 -1 -33z
m-327 2 c-4 -8 -10 -15 -15 -15 -4 0 -6 7 -3 15 4 8 10 15 15 15 4 0 6 -7 3
-15z m170 -100 c17 -13 18 -15 3 -15 -9 0 -17 4 -17 9 0 5 -8 12 -17 14 -13 3
-14 5 -3 6 8 0 24 -6 34 -14z m-744 -154 c36 -4 93 -7 127 -5 35 1 66 -2 69
-7 14 -23 -259 -2 -296 23 -11 7 -8 8 10 3 14 -3 54 -10 90 -14z m255 -11
c-28 -12 -45 -12 -45 0 0 6 15 10 33 9 27 0 29 -2 12 -9z m-657 -135 c-3 -3
-9 2 -12 12 -6 14 -5 15 5 6 7 -7 10 -15 7 -18z m42 -15 c0 -5 -5 -10 -11 -10
-5 0 -7 5 -4 10 3 6 8 10 11 10 2 0 4 -4 4 -10z m260 -130 c0 -5 -4 -10 -9
-10 -6 0 -13 5 -16 10 -3 6 1 10 9 10 9 0 16 -4 16 -10z m60 0 c0 -5 -2 -10
-4 -10 -3 0 -8 5 -11 10 -3 6 -1 10 4 10 6 0 11 -4 11 -10z m-121 -76 c13 -12
-8 -10 -29 2 l-25 15 25 -7 c14 -3 27 -8 29 -10z m111 -9 c0 -15 -39 -21 -65
-10 l-30 13 48 0 c26 0 47 -1 47 -3z m720 -24 c0 -6 -4 -13 -10 -16 -5 -3 -10
1 -10 9 0 9 5 16 10 16 6 0 10 -4 10 -9z m-360 -23 c0 -16 -3 -19 -11 -11 -6
6 -8 16 -5 22 11 17 16 13 16 -11z m40 -2 c0 -3 -4 -8 -10 -11 -5 -3 -10 -1
-10 4 0 6 5 11 10 11 6 0 10 -2 10 -4z m-340 -26 c13 -8 13 -10 -2 -10 -9 0
-20 5 -23 10 -8 13 5 13 25 0z m693 -149 c26 -10 39 -33 31 -55 -8 -22 -75
-39 -106 -27 -35 13 -41 26 -27 53 21 39 52 48 102 29z m189 -49 c-13 -4 -23
-10 -23 -14 1 -14 -14 -10 -17 4 -2 9 9 14 30 15 26 1 28 0 10 -5z m168 4 c0
-9 -39 -13 -51 -5 -10 6 -4 9 19 9 17 0 32 -2 32 -4z m-70 -26 c0 -5 -4 -10
-10 -10 -5 0 -10 5 -10 10 0 6 5 10 10 10 6 0 10 -4 10 -10z m-159 -43 c-16
-16 -26 0 -10 19 9 11 15 12 17 4 2 -6 -1 -17 -7 -23z m-38 5 c-5 -11 -7 -11
-14 0 -6 10 -11 10 -21 0 -6 -6 -17 -12 -22 -12 -6 0 -3 7 7 15 24 17 57 16
50 -3z m134 12 c-3 -3 -12 -4 -19 -1 -8 3 -5 6 6 6 11 1 17 -2 13 -5z m-282
-244 c-3 -5 -13 -10 -21 -10 -8 0 -14 5 -14 10 0 6 9 10 21 10 11 0 17 -4 14
-10z m-1 -45 c-4 -8 -8 -15 -10 -15 -2 0 -4 7 -4 15 0 8 4 15 10 15 5 0 7 -7
4 -15z"/>
<path d="M2610 5995 c-11 -13 -10 -14 4 -9 9 3 16 10 16 15 0 13 -6 11 -20 -6z"/>
<path d="M2635 5980 c-3 -6 1 -7 9 -4 18 7 21 14 7 14 -6 0 -13 -4 -16 -10z"/>
<path d="M2555 5945 c-29 -28 -32 -45 -10 -45 18 0 65 43 65 60 0 18 -30 11
-55 -15z"/>
<path d="M3230 5700 c-9 -6 -10 -10 -3 -10 6 0 15 5 18 10 8 12 4 12 -15 0z"/>
<path d="M2420 5681 c0 -25 6 -27 13 -6 4 8 2 17 -3 20 -6 4 -10 -3 -10 -14z"/>
<path d="M2782 5650 c0 -14 2 -19 5 -12 2 6 2 18 0 25 -3 6 -5 1 -5 -13z"/>
<path d="M2340 5581 c0 -5 -3 -16 -6 -25 -4 -12 0 -16 16 -16 12 0 30 -10 41
-22 l18 -23 1 36 c0 19 4 39 10 45 6 6 3 10 -10 10 -11 0 -23 -8 -26 -18 -3
-10 -10 -18 -16 -18 -5 0 -8 6 -5 14 3 8 -1 17 -9 20 -8 3 -14 1 -14 -3z"/>
<path d="M2577 5523 c-12 -12 -7 -22 8 -17 8 4 15 10 15 15 0 11 -14 12 -23 2z"/>
<path d="M4198 5283 c7 -3 16 -2 19 1 4 3 -2 6 -13 5 -11 0 -14 -3 -6 -6z"/>
<path d="M3940 5220 c-8 -5 -11 -12 -7 -16 4 -4 13 -2 19 4 15 15 7 24 -12 12z"/>
<path d="M2370 5179 c0 -5 5 -7 10 -4 6 3 10 8 10 11 0 2 -4 4 -10 4 -5 0 -10
-5 -10 -11z"/>
<path d="M3898 5183 c7 -3 16 -2 19 1 4 3 -2 6 -13 5 -11 0 -14 -3 -6 -6z"/>
<path d="M2840 5160 c0 -5 5 -10 10 -10 6 0 10 5 10 10 0 6 -4 10 -10 10 -5 0
-10 -4 -10 -10z"/>
<path d="M2760 5150 c0 -4 7 -13 15 -20 10 -9 15 -9 15 -1 0 6 6 11 14 11 8 0
18 4 21 10 3 5 -9 9 -30 8 -19 -1 -35 -4 -35 -8z"/>
<path d="M2708 5123 c-10 -2 -18 -14 -18 -26 0 -20 0 -20 16 -1 16 20 16 13
-2 -31 -9 -22 14 -18 26 5 6 11 18 20 27 20 13 0 13 -3 3 -15 -19 -22 -4 -31
17 -10 27 28 24 42 -8 40 -18 -1 -29 3 -29 12 0 13 -3 14 -32 6z"/>
<path d="M2930 5120 c-23 -7 -23 -8 -3 -9 12 -1 25 4 28 9 3 6 5 10 3 9 -2 -1
-14 -5 -28 -9z"/>
<path d="M3118 5074 c-16 -8 -28 -19 -28 -24 0 -16 -41 -22 -69 -10 -21 8 -33
8 -56 -4 l-29 -15 28 -11 c15 -5 49 -10 76 -10 39 0 52 4 60 20 6 11 21 20 33
20 30 0 62 24 53 38 -10 16 -35 14 -68 -4z m-61 -60 c-3 -3 -12 -4 -19 -1 -8
3 -5 6 6 6 11 1 17 -2 13 -5z"/>
<path d="M2195 5066 c-30 -34 -35 -48 -10 -24 16 15 27 29 24 32 -2 2 -8 -1
-14 -8z"/>
<path d="M2260 5051 c-6 -12 -7 -21 -1 -21 10 0 24 30 17 37 -2 3 -9 -5 -16
-16z"/>
<path d="M3233 5016 c-10 -11 -9 -15 4 -20 9 -4 19 -2 22 3 4 6 18 14 31 20
24 9 23 10 -10 10 -19 0 -40 -6 -47 -13z"/>
<path d="M2726 4984 c-9 -22 3 -32 14 -14 12 19 12 30 1 30 -5 0 -12 -7 -15
-16z"/>
<path d="M3448 4940 c14 -15 26 -19 50 -14 49 10 38 29 -18 31 -50 3 -51 3
-32 -17z"/>
<path d="M3440 4766 c0 -2 11 -6 25 -8 13 -3 22 -1 19 3 -5 9 -44 13 -44 5z"/>
<path d="M3367 4733 c-9 -9 -9 -33 1 -33 4 0 13 9 20 20 10 16 10 20 -1 20 -8
0 -17 -3 -20 -7z"/>
<path d="M3160 4620 c10 -6 70 -1 70 6 0 2 -18 3 -40 2 -23 -1 -36 -4 -30 -8z"/>
<path d="M3190 4079 c0 -5 5 -7 10 -4 6 3 10 8 10 11 0 2 -4 4 -10 4 -5 0 -10
-5 -10 -11z"/>
<path d="M2791 4019 c-13 -11 -21 -22 -19 -25 3 -3 12 1 19 9 8 7 23 18 34 25
14 8 15 11 5 11 -8 0 -26 -9 -39 -20z"/>
<path d="M2814 3972 c-12 -8 -38 -52 -30 -52 3 0 14 14 26 30 22 31 23 35 4
22z"/>
<path d="M2860 3959 c0 -5 5 -7 10 -4 6 3 10 8 10 11 0 2 -4 4 -10 4 -5 0 -10
-5 -10 -11z"/>
<path d="M2550 3919 c0 -5 5 -7 10 -4 6 3 10 8 10 11 0 2 -4 4 -10 4 -5 0 -10
-5 -10 -11z"/>
<path d="M2695 3920 c3 -5 10 -10 16 -10 5 0 9 5 9 10 0 6 -7 10 -16 10 -8 0
-12 -4 -9 -10z"/>
<path d="M2515 3900 c-3 -5 -1 -10 4 -10 6 0 11 5 11 10 0 6 -2 10 -4 10 -3 0
-8 -4 -11 -10z"/>
<path d="M2802 3903 c-6 -2 -9 -10 -5 -16 4 -6 0 -8 -9 -4 -12 4 -15 0 -11
-16 3 -16 2 -18 -5 -8 -10 14 -52 7 -52 -9 0 -32 65 -12 82 24 6 14 18 27 27
29 13 4 13 5 1 5 -8 0 -21 -2 -28 -5z"/>
<path d="M2676 3885 c-8 -8 -27 -15 -43 -15 -24 0 -73 -19 -50 -20 4 0 0 -14
-9 -31 -19 -37 -3 -31 36 13 13 15 34 28 46 28 11 0 29 9 39 20 21 23 4 28
-19 5z"/>
<path d="M2885 3850 c-3 -5 -2 -10 4 -10 5 0 13 5 16 10 3 6 2 10 -4 10 -5 0
-13 -4 -16 -10z"/>
<path d="M2680 3814 c0 -10 5 -26 10 -34 8 -11 9 -8 6 14 -6 34 -16 47 -16 20z"/>
<path d="M2725 3810 c-3 -5 -3 -15 1 -21 3 -6 1 -15 -6 -19 -8 -5 -9 -10 -1
-14 8 -6 41 40 41 59 0 9 -29 5 -35 -5z"/>
<path d="M2597 3793 c-4 -3 -7 -11 -7 -17 0 -6 5 -5 12 2 6 6 9 14 7 17 -3 3
-9 2 -12 -2z"/>
<path d="M2768 3623 c7 -3 16 -2 19 1 4 3 -2 6 -13 5 -11 0 -14 -3 -6 -6z"/>
<path d="M2745 3600 c3 -5 8 -10 11 -10 2 0 4 5 4 10 0 6 -5 10 -11 10 -5 0
-7 -4 -4 -10z"/>
<path d="M3511 3330 c0 -8 4 -24 8 -34 7 -19 8 -19 15 -1 4 12 1 24 -9 34 -13
13 -15 13 -14 1z"/>
<path d="M3300 3300 c8 -5 20 -10 25 -10 6 0 3 5 -5 10 -8 5 -19 10 -25 10 -5
0 -3 -5 5 -10z"/>
<path d="M3493 3285 c-17 -18 -16 -22 2 -22 8 0 15 9 15 19 0 21 -1 22 -17 3z"/>
<path d="M3800 3270 c-14 -10 -22 -21 -19 -25 9 -8 53 10 68 29 12 14 11 16
-5 16 -11 0 -30 -9 -44 -20z"/>
<path d="M2460 3270 c0 -5 5 -10 11 -10 5 0 7 5 4 10 -3 6 -8 10 -11 10 -2 0
-4 -4 -4 -10z"/>
<path d="M3645 3180 c-3 -5 1 -10 10 -10 9 0 13 5 10 10 -3 6 -8 10 -10 10 -2
0 -7 -4 -10 -10z"/>
<path d="M3600 3156 c0 -2 7 -6 15 -10 8 -3 15 -1 15 4 0 6 -7 10 -15 10 -8 0
-15 -2 -15 -4z"/>
<path d="M4220 3105 l-35 -13 40 -4 40 -4 -35 -11 -35 -10 30 -13 c24 -10 47
-10 115 0 96 14 160 14 174 0 7 -7 1 -10 -14 -10 -35 0 -57 -15 -35 -24 9 -3
14 -10 10 -15 -8 -14 13 -24 59 -27 69 -5 111 -16 122 -30 6 -8 29 -15 50 -17
22 -1 44 -9 51 -17 16 -21 110 -38 152 -27 18 5 44 6 57 3 14 -4 24 -2 24 4 0
5 -4 10 -10 10 -5 0 -10 7 -10 15 0 8 -4 15 -10 15 -5 0 -10 9 -10 21 0 18 -4
20 -32 14 -18 -4 -35 -11 -38 -15 -3 -4 -14 -4 -25 0 -16 6 -13 8 15 15 l35 9
-32 3 c-24 3 -30 8 -26 20 5 13 2 15 -18 10 -13 -4 -37 -7 -53 -7 -20 0 -27
-4 -23 -14 4 -10 -1 -14 -16 -11 -59 8 -87 19 -92 35 -3 10 -12 21 -20 24 -26
10 -16 26 16 26 27 0 30 2 19 15 -7 8 -28 17 -49 21 -20 4 -41 11 -48 16 -8 7
-20 4 -35 -6 -25 -18 -74 -21 -83 -6 -4 6 -35 8 -81 4 -50 -4 -74 -2 -74 5 0
14 -26 13 -70 -4z m692 -165 c-21 -20 -82 -28 -82 -11 0 5 9 7 19 4 10 -3 32
2 47 11 39 20 42 20 16 -4z"/>
<path d="M4140 3092 c0 -14 11 -21 26 -15 8 3 11 9 8 14 -7 11 -34 12 -34 1z"/>
<path d="M4100 3070 c8 -5 20 -10 25 -10 6 0 3 5 -5 10 -8 5 -19 10 -25 10 -5
0 -3 -5 5 -10z"/>
<path d="M4781 3046 c11 -9 99 -15 99 -6 0 6 -23 10 -52 10 -28 0 -49 -2 -47
-4z"/>
<path d="M4895 3040 c-3 -5 -1 -10 4 -10 6 0 11 5 11 10 0 6 -2 10 -4 10 -3 0
-8 -4 -11 -10z"/>
<path d="M4328 3018 c8 -8 17 -8 34 0 22 10 21 11 -11 11 -27 1 -32 -2 -23
-11z"/>
<path d="M4655 3020 c-3 -5 1 -10 9 -10 9 0 16 5 16 10 0 6 -4 10 -9 10 -6 0
-13 -4 -16 -10z"/>
<path d="M4692 3009 c2 -7 10 -15 17 -17 8 -3 12 1 9 9 -2 7 -10 15 -17 17 -8
3 -12 -1 -9 -9z"/>
<path d="M5065 2970 c3 -5 11 -10 16 -10 6 0 7 5 4 10 -3 6 -11 10 -16 10 -6
0 -7 -4 -4 -10z"/>
<path d="M5000 2954 c0 -8 5 -12 10 -9 6 4 8 11 5 16 -9 14 -15 11 -15 -7z"/>
<path d="M4960 2950 c0 -5 7 -10 16 -10 8 0 12 5 9 10 -3 6 -10 10 -16 10 -5
0 -9 -4 -9 -10z"/>
<path d="M3636 2914 c-23 -23 -20 -30 4 -9 11 10 20 20 20 22 0 7 -9 2 -24
-13z"/>
<path d="M4992 2918 c5 -16 58 -23 58 -9 0 6 -6 8 -14 5 -8 -3 -17 -1 -21 5
-9 15 -28 14 -23 -1z"/>
<path d="M5080 2919 c0 -5 5 -7 10 -4 6 3 10 8 10 11 0 2 -4 4 -10 4 -5 0 -10
-5 -10 -11z"/>
<path d="M4063 2723 c-7 -2 -13 -8 -13 -13 0 -10 38 -1 46 11 6 10 -13 11 -33
2z"/>
<path d="M4185 2680 c-3 -5 1 -10 9 -10 9 0 16 5 16 10 0 6 -4 10 -9 10 -6 0
-13 -4 -16 -10z"/>
<path d="M4680 2610 c0 -5 4 -10 9 -10 6 0 13 5 16 10 3 6 -1 10 -9 10 -9 0
-16 -4 -16 -10z"/>
<path d="M4900 2590 c0 -5 10 -15 23 -21 22 -12 22 -12 3 10 -21 23 -26 26
-26 11z"/>
<path d="M4280 2535 c0 -11 7 -15 23 -13 12 2 22 8 22 13 0 6 -10 11 -22 13
-16 2 -23 -2 -23 -13z"/>
<path d="M4865 2399 c-4 -6 -13 -8 -20 -5 -13 5 -35 -12 -35 -27 0 -5 7 -4 15
3 12 10 15 10 15 -4 0 -9 5 -16 10 -16 6 0 10 6 10 14 0 9 8 13 23 10 12 -2
17 -2 10 2 -7 3 -9 12 -6 20 6 16 -13 19 -22 3z"/>
<path d="M4820 2341 c0 -6 4 -13 10 -16 6 -3 7 1 4 9 -7 18 -14 21 -14 7z"/>
<path d="M4570 2100 c-9 -6 -10 -10 -3 -10 6 0 15 5 18 10 8 12 4 12 -15 0z"/>
<path d="M4440 2071 c0 -5 7 -11 14 -14 10 -4 13 -1 9 9 -6 15 -23 19 -23 5z"/>
<path d="M4357 2037 c-3 -7 3 -13 14 -13 13 0 15 3 7 13 -6 7 -12 13 -13 13
-2 0 -5 -6 -8 -13z"/>
<path d="M4401 2034 c0 -11 3 -14 6 -6 3 7 2 16 -1 19 -3 4 -6 -2 -5 -13z"/>
<path d="M4365 2000 c-3 -5 -1 -10 4 -10 6 0 11 5 11 10 0 6 -2 10 -4 10 -3 0
-8 -4 -11 -10z"/>
<path d="M3300 1989 c0 -5 5 -7 10 -4 6 3 10 8 10 11 0 2 -4 4 -10 4 -5 0 -10
-5 -10 -11z"/>
<path d="M4085 1989 c-36 -6 -37 -9 -2 -13 6 0 13 -16 15 -34 2 -18 10 -36 18
-39 8 -3 14 -13 15 -22 0 -12 2 -12 9 4 7 18 9 17 22 -14 11 -25 17 -29 21
-17 4 9 4 22 1 30 -3 8 0 25 6 38 11 22 10 22 -9 -2 -13 -16 -21 -20 -21 -11
0 8 7 23 17 33 17 19 5 26 -14 7 -16 -16 -36 -1 -30 22 6 24 1 26 -48 18z m32
-61 c-3 -8 -6 -5 -6 6 -1 11 2 17 5 13 3 -3 4 -12 1 -19z"/>
<path d="M4398 1993 c7 -3 16 -2 19 1 4 3 -2 6 -13 5 -11 0 -14 -3 -6 -6z"/>
<path d="M3851 1974 c-7 -8 -10 -18 -7 -21 7 -7 36 16 36 28 0 13 -13 10 -29
-7z"/>
<path d="M3900 1975 c0 -8 2 -15 4 -15 2 0 11 -3 20 -6 23 -9 20 9 -4 24 -17
10 -20 10 -20 -3z"/>
<path d="M4282 1983 c-6 -2 -10 -9 -6 -14 3 -5 0 -9 -6 -9 -6 0 -8 -4 -5 -10
3 -5 0 -7 -8 -4 -18 7 -29 -20 -21 -51 5 -21 9 -22 25 -12 12 7 17 18 13 29
-3 10 -1 18 5 18 6 0 17 14 26 30 16 30 10 36 -23 23z"/>
<path d="M4540 1975 c-11 -13 -10 -14 4 -9 9 3 16 10 16 15 0 13 -6 11 -20 -6z"/>
<path d="M3390 1969 c0 -5 5 -7 10 -4 6 3 10 8 10 11 0 2 -4 4 -10 4 -5 0 -10
-5 -10 -11z"/>
<path d="M3740 1972 c0 -6 5 -14 11 -18 6 -3 9 -15 6 -25 -3 -10 -2 -18 2 -18
20 3 51 -15 47 -27 -7 -18 2 -18 20 1 11 11 21 12 42 4 21 -8 24 -8 15 1 -6 7
-26 14 -45 15 -45 4 -45 4 -28 16 13 9 12 10 -2 5 -10 -3 -20 -1 -23 4 -3 4 0
10 6 12 5 2 7 11 3 22 -5 13 -9 14 -15 5 -6 -10 -11 -10 -23 0 -10 8 -16 9
-16 3z"/>
<path d="M3947 1960 c-3 -14 -14 -20 -31 -20 -15 0 -26 -6 -26 -14 0 -9 10
-12 31 -10 16 2 27 0 24 -5 -7 -12 4 -19 38 -25 15 -2 27 -1 27 4 0 12 39 7
70 -9 l25 -12 -25 20 c-14 11 -27 18 -29 16 -2 -3 -17 3 -33 13 -23 14 -30 14
-37 4 -7 -11 -9 -10 -14 2 -5 12 0 16 16 17 17 1 18 2 5 6 -10 2 -18 8 -18 13
0 5 8 11 18 13 11 3 8 5 -9 6 -19 1 -28 -5 -32 -19z"/>
<path d="M4331 1975 c-1 -6 6 -21 15 -34 15 -21 18 -22 26 -6 6 9 7 19 4 22
-3 4 -6 1 -6 -5 0 -7 -5 -12 -11 -12 -6 0 -8 7 -5 16 3 8 2 13 -3 9 -5 -3 -12
1 -14 7 -3 7 -6 8 -6 3z"/>
<path d="M3816 1957 c3 -10 9 -15 12 -12 3 3 0 11 -7 18 -10 9 -11 8 -5 -6z"/>
<path d="M4295 1913 c4 -15 1 -23 -12 -27 -22 -8 -58 -55 -49 -64 4 -3 24 13
45 36 34 37 37 44 24 59 -13 17 -14 16 -8 -4z"/>
<path d="M3855 1870 c-3 -5 -1 -10 4 -10 6 0 11 5 11 10 0 6 -2 10 -4 10 -3 0
-8 -4 -11 -10z"/>
<path d="M4056 1858 c5 -8 -3 -9 -31 -5 -23 4 -51 1 -72 -8 -19 -8 -38 -13
-42 -10 -4 2 -8 -2 -8 -10 0 -10 6 -11 25 -4 14 5 27 8 29 5 3 -2 18 0 35 5
42 12 78 2 78 -22 0 -10 -3 -19 -7 -19 -5 0 -8 -11 -8 -24 0 -18 5 -23 22 -22
12 0 19 3 17 5 -2 2 0 9 5 15 5 6 12 25 15 41 6 26 3 33 -23 48 -34 20 -45 22
-35 5z"/>
<path d="M3785 1850 c3 -5 8 -10 11 -10 2 0 4 5 4 10 0 6 -5 10 -11 10 -5 0
-7 -4 -4 -10z"/>
<path d="M4142 1840 c0 -14 2 -19 5 -12 2 6 2 18 0 25 -3 6 -5 1 -5 -13z"/>
<path d="M3680 1840 c-13 -8 -12 -10 3 -10 9 0 17 5 17 10 0 12 -1 12 -20 0z"/>
<path d="M4175 1821 c-3 -6 -3 -11 2 -11 4 0 1 -5 -7 -10 -10 -7 -11 -10 -2
-10 7 0 15 7 19 15 7 19 -2 31 -12 16z"/>
<path d="M4265 1819 c-4 -6 -5 -12 -2 -15 2 -3 7 2 10 11 7 17 1 20 -8 4z"/>
<path d="M4427 1806 c-4 -10 -5 -21 -2 -24 9 -9 17 6 13 25 -3 17 -4 17 -11
-1z"/>
<path d="M4017 1760 c-13 -19 -19 -21 -30 -11 -12 9 -16 8 -21 -4 -3 -8 -12
-15 -21 -15 -16 0 -20 -12 -8 -23 3 -4 17 3 30 15 19 17 23 18 23 6 0 -9 -6
-18 -12 -21 -7 -2 -10 -8 -5 -13 4 -4 14 2 22 14 9 11 22 28 31 37 9 8 14 20
12 27 -3 7 -11 2 -21 -12z"/>
<path d="M4120 1745 c-11 -13 -10 -14 4 -9 9 3 16 10 16 15 0 13 -6 11 -20 -6z"/>
<path d="M5020 1709 c0 -11 5 -17 10 -14 6 3 10 13 10 21 0 8 -4 14 -10 14 -5
0 -10 -9 -10 -21z"/>
<path d="M4410 1689 c0 -5 5 -7 10 -4 6 3 10 8 10 11 0 2 -4 4 -10 4 -5 0 -10
-5 -10 -11z"/>
<path d="M4475 1689 c-11 -17 1 -21 15 -4 8 9 8 15 2 15 -6 0 -14 -5 -17 -11z"/>
<path d="M4260 1679 c0 -5 5 -7 10 -4 6 3 10 8 10 11 0 2 -4 4 -10 4 -5 0 -10
-5 -10 -11z"/>
<path d="M4430 1676 c0 -2 7 -7 16 -10 8 -3 12 -2 9 4 -6 10 -25 14 -25 6z"/>
<path d="M4869 1629 c-7 -15 -8 -24 0 -32 7 -7 7 -16 0 -29 -6 -12 -6 -18 0
-18 6 0 15 9 21 20 8 15 8 20 -1 20 -7 0 -10 12 -7 30 5 35 3 37 -13 9z"/>
<path d="M4967 1617 c-2 -12 -8 -30 -12 -39 -5 -12 -3 -18 6 -18 7 0 9 3 6 7
-4 3 -3 11 2 17 14 19 20 45 12 51 -5 2 -11 -5 -14 -18z"/>
<path d="M4910 1588 c0 -19 2 -20 10 -8 13 19 13 30 0 30 -5 0 -10 -10 -10
-22z"/>
<path d="M4759 1578 c-11 -8 -11 -9 3 -5 9 3 18 1 21 -6 2 -8 5 -8 10 0 9 15
-17 23 -34 11z"/>
<path d="M4812 1555 c1 -19 5 -35 10 -35 8 0 12 17 8 35 -1 6 -3 16 -3 23 0 6
-4 12 -8 12 -5 0 -8 -16 -7 -35z"/>
<path d="M5185 1510 c-24 -6 -26 -8 -7 -9 13 -1 22 -7 22 -18 0 -15 2 -14 15
3 8 10 15 22 15 27 0 8 -3 8 -45 -3z"/>
<path d="M4930 1319 c0 -5 5 -7 10 -4 6 3 10 8 10 11 0 2 -4 4 -10 4 -5 0 -10
-5 -10 -11z"/>
<path d="M4642 1208 c-19 -19 -14 -29 8 -16 20 13 27 28 12 28 -4 0 -13 -5
-20 -12z"/>
<path d="M4814 938 c-7 -33 -13 -42 -27 -40 -9 2 -25 -2 -35 -8 -13 -8 -2 -9
43 -6 33 3 61 5 63 5 2 1 0 5 -3 11 -3 5 10 17 29 27 38 18 39 33 1 33 -13 0
-27 5 -30 10 -14 22 -32 8 -41 -32z"/>
<path d="M4976 954 c-9 -9 -15 -19 -12 -21 3 -3 13 2 22 11 9 9 14 19 11 22
-2 3 -12 -3 -21 -12z"/>
<path d="M3189 2858 c7 -9 10 -22 6 -27 -3 -6 -2 -18 3 -28 8 -13 9 -10 8 15
-1 17 -8 37 -16 44 -12 11 -12 11 -1 -4z"/>
<path d="M3050 2839 c0 -5 5 -7 10 -4 6 3 10 8 10 11 0 2 -4 4 -10 4 -5 0 -10
-5 -10 -11z"/>
</g>
</svg>
